<svg width="384" height="84" viewBox="0 0 384 84" fill="none" xmlns="http://www.w3.org/2000/svg">
<g id="Property 1=Default">
<path id="Shape" fill-rule="evenodd" clip-rule="evenodd" d="M34.5 18V23.4715H24.4663V38.6736H33V44.1451H24.4663V60.5285H34.5V66H18V18H34.5ZM99.5157 18C101.105 18 102.678 18.384 104.234 19.152L104.7 19.3939V25.0606L104.268 24.8555C102.85 24.2044 101.648 23.8788 100.661 23.8788C99.1741 23.8788 97.8981 24.2475 96.8331 24.9848C95.7681 25.7222 94.889 26.8586 94.1958 28.3939C93.5025 29.9293 92.9901 31.8737 92.6586 34.2273C92.327 36.5808 92.1612 39.3636 92.1612 42.5758C92.1612 54.1313 95.105 59.9091 100.993 59.9091C101.904 59.9091 102.981 59.6537 104.226 59.1429L104.7 58.9394V64.7273L104.284 64.9482C102.885 65.6494 101.335 66 99.6363 66C90.2121 66 85.5 58.2626 85.5 42.7879C85.5 34.4242 86.6504 28.202 88.9512 24.1212C91.252 20.0404 94.7735 18 99.5157 18ZM291 23.4715V18H274.5V66H291V60.5285H280.966V44.1451H289.5V38.6736H280.966V23.4715H291ZM201.062 18L207.531 37.1503L208.087 38.7839C209.735 43.7176 211.206 48.9451 212.5 54.4663C211.979 50.7565 211.594 47.399 211.344 44.3938C211.129 41.8179 211.007 39.3715 210.976 37.0545L210.969 35.9067V18H217.5V66H211.406L204.125 44.3938L203.632 42.8763C203.146 41.3491 202.68 39.7927 202.234 38.2073C201.641 36.0933 201.094 33.8756 200.594 31.5544L200.512 31.0725L200.391 30.4974L200.062 29.0674L200.248 30.7277L200.312 31.4301L200.656 36.3109L201.015 42.511L201.038 43.1172L201.059 44.2228L201.062 45.0777L201.406 66H195V18H201.062ZM243.337 35.7202L240.423 18H234L243.337 66H248.507L258 18H251.922L248.789 35.7202L248.725 36.0583L248.522 37.2124L248.225 39.0466L247.128 46.3523L246.251 52.1153L246.235 52.2244L246.219 52.3368L246 54.1244L245.554 50.7718L244.872 45.886L243.838 38.9223L243.337 35.7202ZM314.518 18L315.067 18.007C318.315 18.0907 320.754 18.9277 322.383 20.5181C324.56 22.6943 325.648 26.0207 325.648 30.4974C325.648 33.9378 325.073 36.6995 323.922 38.7824C322.844 40.7351 321.333 41.9911 319.389 42.5503L318.995 42.6529L327.824 66H321.264L312.466 42.4974V66H306V18H314.518ZM366 23.658V18H345V23.658H352.445V66H358.773V23.658H366ZM69 39V45H51V39H69ZM312.094 24H313.119L313.521 24.009C314.309 24.0448 315 24.1883 315.595 24.4395C316.288 24.7324 316.854 25.1914 317.294 25.8164C317.733 26.4414 318.056 27.252 318.261 28.248C318.466 29.2441 318.568 30.4453 318.568 31.8516C318.568 34.4492 318.08 36.2949 317.104 37.3887C316.127 38.4824 314.457 39.0293 312.094 39.0293V24Z" fill="white"/>
<path id="Union" fill-rule="evenodd" clip-rule="evenodd" d="M151.625 16.875H145.375V43.0627H151.625V16.875ZM141.625 24.5332V17.8859L139.634 18.6151L139.623 18.6194C130.149 22.205 123.375 31.3525 123.375 42.0623C123.375 55.8864 134.647 67.125 148.5 67.125C162.353 67.125 173.625 55.8864 173.625 42.0623C173.625 31.1647 166.612 21.8846 156.876 18.4357L155.375 17.9041V24.5238L156.46 25.0138C162.904 28.0178 167.375 34.53 167.375 42.0623C167.375 52.4409 158.913 60.8854 148.5 60.8854C138.087 60.8854 129.625 52.4409 129.625 42.0623C129.625 34.3708 134.287 27.7428 140.951 24.8281L141.625 24.5332Z" fill="white"/>
</g>
</svg>
