<svg width="248" height="32" viewBox="0 0 248 32" fill="none" xmlns="http://www.w3.org/2000/svg">
<path fill-rule="evenodd" clip-rule="evenodd" d="M93.3333 0V16H90.6667V0H93.3333ZM56.8445 0.433594C57.8744 0.433594 58.8934 0.681097 59.9017 1.1761L60.2039 1.33203V4.98438L59.924 4.85218C59.005 4.4325 58.2259 4.22266 57.5867 4.22266C56.6232 4.22266 55.7964 4.46029 55.1063 4.93555C54.4161 5.41081 53.8465 6.14323 53.3973 7.13281C52.948 8.1224 52.616 9.37565 52.4012 10.8926C52.1863 12.4095 52.0789 14.2031 52.0789 16.2734C52.0789 23.7214 53.9865 27.4453 57.8016 27.4453C58.3918 27.4453 59.0901 27.2807 59.8965 26.9515L60.2039 26.8203V30.5508L59.9347 30.6931C59.0275 31.1451 58.0235 31.3711 56.9227 31.3711C50.8159 31.3711 47.7625 26.3841 47.7625 16.4102C47.7625 11.0195 48.5079 7.00911 49.9988 4.37891C51.4897 1.7487 53.7716 0.433594 56.8445 0.433594ZM97.3333 0.916667C103.536 3.11979 108 9.04687 108 16C108 24.8229 100.823 32 92 32C83.1771 32 76 24.8229 76 16C76 9.16676 80.311 3.32448 86.3474 1.03393L86.6667 0.916667V3.79167C81.9635 5.85417 78.6667 10.5469 78.6667 16C78.6667 23.3542 84.6458 29.3333 92 29.3333C99.3542 29.3333 105.333 23.3542 105.333 16C105.333 10.6582 102.17 6.04602 97.6195 3.92121L97.3333 3.79167V0.916667ZM11.3281 4.28125V0.84375H0.527344V31H11.3281V27.5625H4.58984V17.2695H10.5664V13.832H4.58984V4.28125H11.3281ZM123.273 0.84375L127.316 12.875L127.664 13.9014C128.694 17.001 129.613 20.2852 130.422 23.7539C130.096 21.4232 129.855 19.3138 129.699 17.4258C129.565 15.8075 129.489 14.2705 129.47 12.8148L129.465 12.0938V0.84375H133.547V31H129.738L125.188 17.4258L124.879 16.4724C124.575 15.5129 124.284 14.5352 124.006 13.5391C123.635 12.2109 123.293 10.8177 122.98 9.35938L122.929 9.05664L122.854 8.69531L122.648 7.79688L122.764 8.83997L122.805 9.28125L123.02 12.3477L123.244 16.2429L123.258 16.6238L123.271 17.3184L123.273 17.8555L123.488 31H119.484V0.84375H123.273ZM154.713 11.9766L152.897 0.84375H148.893L154.713 31H157.936L163.854 0.84375H160.065L158.112 11.9766L158.072 12.189L157.946 12.9141L157.76 14.0664L157.077 18.6562L156.53 22.2769C156.523 22.3208 156.517 22.3672 156.51 22.416L156.373 23.5391L156.095 21.4328L155.67 18.3633L155.026 13.9883L154.713 11.9766ZM189.981 0.84375V4.28125H183.243V13.832H189.22V17.2695H183.243V27.5625H189.981V31H179.18V0.84375H189.981ZM212.508 0.848132L212.163 0.84375H206.812V31H210.874V16.2344L216.402 31H220.523L214.976 16.332L215.224 16.2676C216.445 15.9163 217.394 15.1272 218.071 13.9004C218.794 12.5918 219.155 10.8568 219.155 8.69531C219.155 5.88281 218.472 3.79297 217.105 2.42578C216.081 1.4266 214.549 0.900721 212.508 0.848132ZM247.978 0.84375V4.39844H243.427V31H239.443V4.39844H234.755V0.84375H247.978ZM32.9437 22.1719V19.125H25.8344V22.1719H32.9437ZM210.874 4.18359H211.558L211.826 4.18957C212.351 4.21349 212.812 4.30915 213.208 4.47656C213.67 4.67188 214.048 4.97786 214.341 5.39453C214.634 5.8112 214.849 6.35156 214.986 7.01562C215.122 7.67969 215.191 8.48047 215.191 9.41797C215.191 11.1497 214.865 12.3802 214.214 13.1094C213.563 13.8385 212.45 14.2031 210.874 14.2031V4.18359Z" fill="white"/>
</svg>
